<mxfile host="app.diagrams.net" modified="2023-11-07T00:13:13.672Z" agent="Mozilla/5.0 (Windows NT 10.0; Win64; x64) AppleWebKit/537.36 (KHTML, like Gecko) Chrome/117.0.0.0 Safari/537.36" etag="xfLRcjMXJnCqJXqWwiwU" version="22.0.8" type="github">
  <diagram name="Assignment 3-3" id="n_STaMoLM4lnyQ_naPzz">
    <mxGraphModel dx="2899" dy="1117" grid="1" gridSize="10" guides="1" tooltips="1" connect="1" arrows="1" fold="1" page="1" pageScale="1" pageWidth="850" pageHeight="1100" math="0" shadow="0">
      <root>
        <mxCell id="0" />
        <mxCell id="1" parent="0" />
        <mxCell id="4oMzclI5E0SzdAdSpwsH-4" style="edgeStyle=orthogonalEdgeStyle;rounded=0;orthogonalLoop=1;jettySize=auto;html=1;exitX=0.5;exitY=1;exitDx=0;exitDy=0;entryX=0.5;entryY=0;entryDx=0;entryDy=0;" parent="1" source="4oMzclI5E0SzdAdSpwsH-1" target="4oMzclI5E0SzdAdSpwsH-2" edge="1">
          <mxGeometry relative="1" as="geometry" />
        </mxCell>
        <mxCell id="4oMzclI5E0SzdAdSpwsH-1" value="email=&quot;John@company.com&quot;" style="rounded=0;whiteSpace=wrap;html=1;" parent="1" vertex="1">
          <mxGeometry x="295" y="140" width="260" height="50" as="geometry" />
        </mxCell>
        <mxCell id="4oMzclI5E0SzdAdSpwsH-5" style="edgeStyle=orthogonalEdgeStyle;rounded=0;orthogonalLoop=1;jettySize=auto;html=1;entryX=0.5;entryY=0;entryDx=0;entryDy=0;" parent="1" source="4oMzclI5E0SzdAdSpwsH-17" target="4oMzclI5E0SzdAdSpwsH-16" edge="1">
          <mxGeometry relative="1" as="geometry">
            <mxPoint x="600" y="760" as="targetPoint" />
          </mxGeometry>
        </mxCell>
        <mxCell id="4oMzclI5E0SzdAdSpwsH-7" style="edgeStyle=orthogonalEdgeStyle;rounded=0;orthogonalLoop=1;jettySize=auto;html=1;entryX=0.5;entryY=0;entryDx=0;entryDy=0;" parent="1" source="4oMzclI5E0SzdAdSpwsH-2" target="4oMzclI5E0SzdAdSpwsH-9" edge="1">
          <mxGeometry relative="1" as="geometry">
            <mxPoint x="290" y="380" as="targetPoint" />
            <Array as="points">
              <mxPoint x="288" y="270" />
            </Array>
          </mxGeometry>
        </mxCell>
        <mxCell id="4oMzclI5E0SzdAdSpwsH-8" value="&lt;font style=&quot;font-size: 18px;&quot;&gt;T&lt;/font&gt;" style="edgeLabel;html=1;align=center;verticalAlign=middle;resizable=0;points=[];" parent="4oMzclI5E0SzdAdSpwsH-7" vertex="1" connectable="0">
          <mxGeometry x="-0.7493" y="1" relative="1" as="geometry">
            <mxPoint as="offset" />
          </mxGeometry>
        </mxCell>
        <mxCell id="4oMzclI5E0SzdAdSpwsH-2" value="First Condition" style="rhombus;whiteSpace=wrap;html=1;rounded=0;" parent="1" vertex="1">
          <mxGeometry x="348" y="230" width="155" height="80" as="geometry" />
        </mxCell>
        <mxCell id="4oMzclI5E0SzdAdSpwsH-11" value="" style="edgeStyle=orthogonalEdgeStyle;rounded=0;orthogonalLoop=1;jettySize=auto;html=1;" parent="1" source="4oMzclI5E0SzdAdSpwsH-9" target="4oMzclI5E0SzdAdSpwsH-10" edge="1">
          <mxGeometry relative="1" as="geometry" />
        </mxCell>
        <mxCell id="4oMzclI5E0SzdAdSpwsH-9" value="2nd Condition" style="rhombus;whiteSpace=wrap;html=1;rounded=0;" parent="1" vertex="1">
          <mxGeometry x="210" y="390" width="155" height="80" as="geometry" />
        </mxCell>
        <mxCell id="4oMzclI5E0SzdAdSpwsH-13" value="" style="edgeStyle=orthogonalEdgeStyle;rounded=0;orthogonalLoop=1;jettySize=auto;html=1;entryX=0.5;entryY=0;entryDx=0;entryDy=0;exitX=0;exitY=0.5;exitDx=0;exitDy=0;" parent="1" source="4oMzclI5E0SzdAdSpwsH-10" target="4oMzclI5E0SzdAdSpwsH-12" edge="1">
          <mxGeometry relative="1" as="geometry">
            <mxPoint x="32.5" y="550" as="sourcePoint" />
            <mxPoint x="-20" y="630" as="targetPoint" />
            <Array as="points">
              <mxPoint y="550" />
            </Array>
          </mxGeometry>
        </mxCell>
        <mxCell id="4oMzclI5E0SzdAdSpwsH-10" value="3rd Condition" style="rhombus;whiteSpace=wrap;html=1;rounded=0;" parent="1" vertex="1">
          <mxGeometry x="50" y="510" width="155" height="80" as="geometry" />
        </mxCell>
        <mxCell id="4oMzclI5E0SzdAdSpwsH-15" value="" style="edgeStyle=orthogonalEdgeStyle;rounded=0;orthogonalLoop=1;jettySize=auto;html=1;" parent="1" source="4oMzclI5E0SzdAdSpwsH-12" target="4oMzclI5E0SzdAdSpwsH-14" edge="1">
          <mxGeometry relative="1" as="geometry" />
        </mxCell>
        <mxCell id="4oMzclI5E0SzdAdSpwsH-12" value="4th Condition" style="rhombus;whiteSpace=wrap;html=1;rounded=0;" parent="1" vertex="1">
          <mxGeometry x="-78" y="630" width="155" height="80" as="geometry" />
        </mxCell>
        <mxCell id="4oMzclI5E0SzdAdSpwsH-14" value="True" style="whiteSpace=wrap;html=1;rounded=0;" parent="1" vertex="1">
          <mxGeometry x="-220" y="770" width="120" height="60" as="geometry" />
        </mxCell>
        <mxCell id="4oMzclI5E0SzdAdSpwsH-16" value="Terminate" style="ellipse;whiteSpace=wrap;html=1;" parent="1" vertex="1">
          <mxGeometry x="540" y="840" width="120" height="80" as="geometry" />
        </mxCell>
        <mxCell id="4oMzclI5E0SzdAdSpwsH-18" value="" style="edgeStyle=orthogonalEdgeStyle;rounded=0;orthogonalLoop=1;jettySize=auto;html=1;endArrow=none;endFill=0;" parent="1" source="4oMzclI5E0SzdAdSpwsH-2" target="4oMzclI5E0SzdAdSpwsH-17" edge="1">
          <mxGeometry relative="1" as="geometry">
            <mxPoint x="600" y="760" as="targetPoint" />
            <mxPoint x="503" y="270" as="sourcePoint" />
          </mxGeometry>
        </mxCell>
        <mxCell id="4oMzclI5E0SzdAdSpwsH-19" value="&lt;font size=&quot;3&quot;&gt;F&lt;/font&gt;" style="edgeLabel;html=1;align=center;verticalAlign=middle;resizable=0;points=[];" parent="4oMzclI5E0SzdAdSpwsH-18" vertex="1" connectable="0">
          <mxGeometry x="-0.5139" y="-2" relative="1" as="geometry">
            <mxPoint as="offset" />
          </mxGeometry>
        </mxCell>
        <mxCell id="4oMzclI5E0SzdAdSpwsH-17" value="False" style="rounded=0;whiteSpace=wrap;html=1;" parent="1" vertex="1">
          <mxGeometry x="540" y="720" width="120" height="60" as="geometry" />
        </mxCell>
        <mxCell id="4oMzclI5E0SzdAdSpwsH-20" value="" style="endArrow=none;html=1;rounded=0;exitX=1;exitY=0.5;exitDx=0;exitDy=0;" parent="1" edge="1" source="4oMzclI5E0SzdAdSpwsH-12">
          <mxGeometry width="50" height="50" relative="1" as="geometry">
            <mxPoint x="35" y="660" as="sourcePoint" />
            <mxPoint x="600" y="670" as="targetPoint" />
          </mxGeometry>
        </mxCell>
        <mxCell id="4oMzclI5E0SzdAdSpwsH-21" value="" style="endArrow=none;html=1;rounded=0;" parent="1" edge="1">
          <mxGeometry width="50" height="50" relative="1" as="geometry">
            <mxPoint x="205" y="550" as="sourcePoint" />
            <mxPoint x="600" y="550" as="targetPoint" />
          </mxGeometry>
        </mxCell>
        <mxCell id="4oMzclI5E0SzdAdSpwsH-22" value="" style="endArrow=none;html=1;rounded=0;" parent="1" edge="1">
          <mxGeometry width="50" height="50" relative="1" as="geometry">
            <mxPoint x="365" y="429.5" as="sourcePoint" />
            <mxPoint x="600" y="430" as="targetPoint" />
          </mxGeometry>
        </mxCell>
        <mxCell id="tL87OYj0gY8SQ0421V2Y-1" value="" style="endArrow=none;html=1;rounded=0;exitX=1;exitY=0.5;exitDx=0;exitDy=0;" edge="1" parent="1" source="4oMzclI5E0SzdAdSpwsH-14">
          <mxGeometry width="50" height="50" relative="1" as="geometry">
            <mxPoint x="-130" y="770" as="sourcePoint" />
            <mxPoint y="800" as="targetPoint" />
          </mxGeometry>
        </mxCell>
        <mxCell id="tL87OYj0gY8SQ0421V2Y-2" value="" style="endArrow=none;html=1;rounded=0;" edge="1" parent="1">
          <mxGeometry width="50" height="50" relative="1" as="geometry">
            <mxPoint y="880" as="sourcePoint" />
            <mxPoint y="800" as="targetPoint" />
          </mxGeometry>
        </mxCell>
        <mxCell id="tL87OYj0gY8SQ0421V2Y-3" value="" style="endArrow=none;html=1;rounded=0;entryX=0;entryY=0.5;entryDx=0;entryDy=0;" edge="1" parent="1" target="4oMzclI5E0SzdAdSpwsH-16">
          <mxGeometry width="50" height="50" relative="1" as="geometry">
            <mxPoint y="880" as="sourcePoint" />
            <mxPoint x="50" y="830" as="targetPoint" />
          </mxGeometry>
        </mxCell>
      </root>
    </mxGraphModel>
  </diagram>
</mxfile>
